<svg viewBox="0 0 2400 320" xmlns="http://www.w3.org/2000/svg">
  <defs>
    <marker id="arrow" viewBox="0 0 10 10" refX="9" refY="5" markerWidth="10" markerHeight="10" orient="auto-start-reverse">
      <path d="M0 0 L10 5 L0 10 Z" fill="#6b7280"/>
    </marker>
    <style>
      .box{fill:#f3f4f6;stroke:#374151;stroke-width:1.4}
      .lbl{font:600 22px system-ui,Segoe UI,Roboto,Arial; fill:#111}
      .sub{font:14px system-ui,Segoe UI,Roboto,Arial; fill:#374151}
      .edge{stroke:#6b7280;stroke-width:1.4;fill:none;marker-end:url(#arrow)}
      .edge-dashed{stroke-dasharray:6 5}
    </style>
  </defs>
  <rect class="box" x="40" y="100" rx="12" ry="12" width="260" height="80"/>
  <text class="lbl" x="170" y="130" text-anchor="middle">Foundations / Background</text>
  <text class="sub" x="170" y="150" text-anchor="middle">(theory, domain context)</text>
  <rect class="box" x="380" y="100" rx="12" ry="12" width="260" height="80"/>
  <text class="lbl" x="510" y="130" text-anchor="middle">Research Question</text>
  <text class="sub" x="510" y="150" text-anchor="middle">(precise, testable, scoped)</text>
  <rect class="box" x="720" y="100" rx="12" ry="12" width="260" height="80"/>
  <text class="lbl" x="850" y="130" text-anchor="middle">State of the Art</text>
  <text class="sub" x="850" y="150" text-anchor="middle">(knowns, gaps, hypotheses)</text>
  <rect class="box" x="1060" y="100" rx="12" ry="12" width="260" height="80"/>
  <text class="lbl" x="1190" y="130" text-anchor="middle">Necessary Methods & Workflow</text>
  <text class="sub" x="1190" y="150" text-anchor="middle">(data, preprocessing, validation, metrics)</text>
  <rect class="box" x="1400" y="100" rx="12" ry="12" width="260" height="80"/>
  <text class="lbl" x="1530" y="130" text-anchor="middle">Advanced Methods</text>
  <text class="sub" x="1530" y="150" text-anchor="middle">(models, tuning, ablations)</text>
  <rect class="box" x="1740" y="100" rx="12" ry="12" width="260" height="80"/>
  <text class="lbl" x="1870" y="130" text-anchor="middle">Applied Solution Path</text>
  <text class="sub" x="1870" y="150" text-anchor="middle">(implementation & assumptions)</text>
  <rect class="box" x="2080" y="100" rx="12" ry="12" width="260" height="80"/>
  <text class="lbl" x="2210" y="130" text-anchor="middle">Results</text>
  <text class="sub" x="2210" y="150" text-anchor="middle">(findings, uncertainty, limitations)</text>
  <rect class="box" x="2080" y="220" rx="12" ry="12" width="260" height="80"/>
  <text class="lbl" x="2210" y="250" text-anchor="middle">Loopback → Evaluation & Improvement</text>
  <text class="sub" x="2210" y="270" text-anchor="middle">(error analysis, robustness checks, iteration)</text>
  <path class="edge" d="M300,140 L380,140"/>
  <path class="edge" d="M640,140 L720,140"/>
  <path class="edge" d="M980,140 L1060,140"/>
  <path class="edge" d="M1320,140 L1400,140"/>
  <path class="edge" d="M1660,140 L1740,140"/>
  <path class="edge" d="M2000,140 L2080,140"/>
  <path class="edge" d="M2210,180 L2210,220"/>
  <path class="edge edge-dashed" d="M2080,260 C1680,320 920,320 640,160"/>
  <text x="1360" y="305" class="sub" text-anchor="middle">iterate</text>
</svg>




